<?xml version="1.0" standalone="no"?>
<!DOCTYPE svg PUBLIC "-//W3C//DTD SVG 20010904//EN"
 "http://www.w3.org/TR/2001/REC-SVG-20010904/DTD/svg10.dtd">
<svg version="1.0" xmlns="http://www.w3.org/2000/svg"
 width="691.000000pt" height="361.000000pt" viewBox="0 0 691.000000 361.000000"
 preserveAspectRatio="xMidYMid meet">

<g transform="translate(0.000000,361.000000) scale(0.100000,-0.100000)"
fill="#000000" stroke="none">
<path d="M3627 2690 c-207 -24 -429 -105 -606 -223 -70 -47 -87 -55 -103 -46
-31 17 -93 -15 -113 -57 -29 -61 9 -121 82 -131 56 -7 101 31 105 90 3 38 8
45 63 84 118 83 278 152 460 199 101 26 397 26 510 0 171 -39 315 -100 465
-196 65 -41 70 -46 70 -83 0 -94 131 -132 180 -53 24 40 26 74 4 104 -22 32
-79 54 -109 42 -21 -8 -36 -2 -97 39 -113 76 -243 140 -353 175 -154 49 -401
73 -558 56z"/>
<path d="M3545 2460 c-310 -67 -555 -243 -717 -515 -40 -67 -102 -228 -113
-291 -5 -34 -11 -42 -40 -53 -20 -7 -43 -26 -55 -46 l-22 -35 -277 0 c-153 0
-281 3 -284 7 -4 3 6 18 22 32 50 46 71 97 71 178 0 90 -23 147 -81 197 -77
65 -113 71 -457 71 l-303 0 -2 -510 -2 -510 345 0 c338 1 346 1 393 23 58 28
113 75 133 113 43 84 36 213 -16 287 l-30 42 245 0 245 0 33 -37 c30 -32 40
-37 83 -37 75 -1 124 44 124 115 0 36 -23 84 -45 92 -23 9 -18 56 16 154 43
121 78 187 150 283 140 186 349 319 583 371 124 27 434 27 451 -1 3 -4 -34
-17 -81 -29 -146 -37 -264 -112 -357 -227 -35 -45 -57 -64 -73 -64 -62 0 -114
-53 -114 -116 0 -73 97 -125 162 -87 55 32 67 78 43 158 -11 36 122 167 225
224 14 7 56 24 94 37 127 44 327 28 441 -35 29 -15 41 -24 116 -81 52 -40 159
-151 159 -166 0 -7 -4 -16 -10 -19 -21 -13 -11 -82 16 -114 76 -91 214 -41
214 77 0 32 -7 48 -35 77 -32 34 -38 37 -83 33 l-49 -3 -91 93 c-150 151 -317
246 -532 303 -115 31 -375 35 -495 9z m1213 -488 c18 -24 11 -52 -19 -75 -21
-15 -31 -17 -48 -8 -30 17 -43 45 -32 75 15 38 71 43 99 8z m-2852 -164 c28
-31 34 -45 34 -82 0 -60 -16 -92 -59 -119 -34 -21 -47 -22 -216 -22 l-180 0
-3 119 c-1 66 0 126 3 134 4 11 40 13 196 10 l191 -3 34 -37z m853 -284 c25
-32 26 -47 5 -68 -21 -21 -80 -21 -88 0 -17 45 5 94 44 94 10 0 28 -12 39 -26z
m-848 -116 c74 -33 102 -131 56 -199 -41 -62 -68 -68 -289 -69 l-198 0 0 146
0 146 198 -4 c153 -3 205 -7 233 -20z"/>
<path d="M2310 1800 l0 -210 90 0 89 0 3 128 3 127 105 3 105 3 43 79 42 80
-240 0 -240 0 0 -210z"/>
<path d="M6280 1495 l0 -515 90 0 90 0 -2 513 -3 512 -87 3 -88 3 0 -516z"/>
<path d="M2964 1918 c-9 -17 -25 -47 -36 -66 l-19 -35 49 -46 c74 -70 106
-144 110 -258 8 -190 -71 -311 -230 -358 -42 -12 -90 -15 -199 -13 l-144 3 -3
123 -3 122 -89 0 -90 0 0 -205 0 -205 250 0 c270 0 322 6 415 50 125 60 204
143 251 266 24 61 27 84 28 189 0 167 -23 243 -112 353 -34 43 -126 112 -149
112 -7 0 -20 -14 -29 -32z"/>
<path d="M5027 1924 c-4 -4 -7 -49 -7 -100 l0 -93 -57 -3 -58 -3 -3 -67 c-3
-65 -2 -68 20 -69 13 -1 30 -2 38 -3 8 -2 25 -3 38 -4 l22 -2 0 -217 c0 -208
1 -220 24 -268 42 -89 115 -135 215 -135 51 0 141 26 153 44 9 13 4 35 -19 89
-12 28 -21 36 -32 31 -9 -3 -34 -8 -57 -11 -35 -5 -46 -1 -75 25 l-34 30 -3
206 -4 206 91 0 90 0 6 33 c4 18 5 51 3 72 l-3 40 -90 5 -90 5 -5 95 -5 95
-75 3 c-42 1 -79 0 -83 -4z"/>
<path d="M3975 1731 c-89 -16 -193 -94 -233 -175 -80 -159 -52 -359 66 -467
72 -67 141 -93 242 -93 96 0 156 21 208 74 16 16 32 26 36 23 11 -11 6 -89 -9
-140 -19 -63 -46 -98 -98 -126 -84 -44 -255 -22 -350 45 -29 21 -30 21 -44 2
-8 -10 -23 -36 -34 -56 -25 -49 -15 -66 61 -101 177 -84 412 -71 528 29 109
93 123 167 120 629 l-3 350 -82 3 -83 3 0 -51 c0 -27 -4 -50 -8 -50 -5 0 -19
12 -33 26 -57 61 -181 94 -284 75z m203 -160 c72 -37 112 -102 120 -196 5 -65
-17 -136 -56 -178 -25 -29 -86 -57 -137 -64 -158 -21 -284 171 -215 331 23 54
42 76 90 105 47 28 145 29 198 2z"/>
<path d="M5691 1729 c-55 -9 -172 -61 -191 -84 -8 -10 -4 -27 17 -65 15 -29
33 -54 39 -57 6 -2 28 7 49 21 55 38 102 49 186 45 91 -5 129 -28 154 -94 28
-71 23 -75 -106 -75 -255 0 -351 -53 -376 -206 -9 -55 24 -139 73 -184 34 -31
56 -41 119 -55 114 -26 210 -8 275 51 l39 35 3 -38 3 -38 78 -3 77 -3 0 254
c0 230 -2 259 -21 315 -39 115 -134 177 -287 186 -42 3 -101 1 -131 -5z m264
-484 c0 -64 -14 -92 -64 -131 -37 -27 -168 -33 -205 -9 -32 21 -56 64 -56 99
0 33 54 94 88 99 15 2 74 4 132 3 l105 -1 0 -60z"/>
<path d="M3397 1723 c-4 -3 -7 -172 -7 -375 l0 -368 85 0 85 0 0 375 0 375
-78 0 c-43 0 -82 -3 -85 -7z"/>
<path d="M4625 1718 c-3 -7 -4 -175 -3 -373 l3 -360 88 -3 87 -3 -2 373 -3
373 -83 3 c-60 2 -84 -1 -87 -10z"/>
</g>
</svg>
